{"title":"Honey 3*2016*[720p.AC3.BDRip.x264-LEON 345]","uid":15689470,"size":2473875659,"categoryP":"video","categoryS":"hd___movies","magnet":"?xt=urn:btih:6f33d75d03431daba0052128b9b40e537cf07811&amp;dn=Honey+3%2A2016%2A%5B720p.AC3.BDRip.x264-LEON+345%5D&amp;tr=udp%3A%2F%2Ftracker.leechers-paradise.org%3A6969&amp;tr=udp%3A%2F%2Fzer0day.ch%3A1337&amp;tr=udp%3A%2F%2Fopen.demonii.com%3A1337&amp;tr=udp%3A%2F%2Ftracker.coppersurfer.tk%3A6969&amp;tr=udp%3A%2F%2Fexodus.desync.com%3A6969","seeders":4,"leechers":1,"uploader":"Leon345","files":3,"time":1472386584,"description":"Honey 3 - Honey 3: Dare to Dance *2016* 720p.BDRip.AC3 2.0.Leon345 \r\n =================================================== \r\n\r\n[img]http://i1365.photobucket.com/albums/r749/leon3456/Honey3_zpsgaeoz9hn.jpg[/img]\r\n\r\n Produkcja: USA \r\n Gatunek: Familijny | Muzyczny \r\n Czas trwania: 96 min. \r\n Premiera: 15.08.2016 - Świat \r\n Reżyseria: Bille Woodruff \r\n Scenariusz: Catherine Cyran \r\n \nhttp://www.imdb.com/title/tt4677938/ \r\n\r\n Utalentowana Melea Martin, ograniczana przez szkołe postanawia wykorzytać swój talent i zostać tancerką. \r\n\r\n Obsada: \r\n\r\n Kenny Wormald - Erik Wildwood \r\n Bobby Lockwood - Laser \r\n Cassie Ventura - Melea Martin \r\n Dena Kaplan - Nadine \r\n Sibongile Mlambo - Ishani Magona (as Sibo Mlambo) \r\n Peter Butler - Uncle Simon \r\n Adrian Galley - Mr. Sammy Wright \r\n Sivuyile Ngesi - DJ Zubair Khumalo \r\n\r\n General \r\n\r\n Format : Matroska \r\n Format version : Version 2 \r\n File size : 2.30 GiB \r\n Duration : 1h 36mn \r\n Overall bit rate : 3 426 Kbps \r\n Movie name : Honey3_(2016).BDRip.720p.Leon345 \r\n Encoded date : UTC 2016-08-28 08:59:04 \r\n Writing application : mkvmerge v5.7.0 ('The Whirlwind') built on Jul 8 2012 20:08:51 \r\n Writing library : libebml v1.2.3 + libmatroska v1.3.0 \r\n\r\n Video \r\n ID : 1 \r\n Format : AVC \r\n Format/Info : Advanced Video Codec \r\n Format profile :    \r\n Format settings, CABAC : Yes \r\n Format settings, ReFrames : 6 frames \r\n Codec ID : V_MPEG4/ISO/AVC \r\n Duration : 1h 36mn \r\n Bit rate : 3 149 Kbps \r\n Width : 1 280 pixels \r\n Height : 720 pixels \r\n Display aspect ratio : 16:9 \r\n Frame rate mode : Constant \r\n Frame rate : 23.976 (24000/1001) fps \r\n Color space : YUV \r\n Chroma subsampling : 4:2:0 \r\n Bit depth : 8 bits \r\n Scan type : Progressive \r\n Bits/(Pixel*Frame) : 0.143 \r\n Stream size : 2.09 GiB (91%) \r\n Writing library : x264 \r\n Encoding settings : cabac=1 / [****]6 / deblock=1:-1:-1 / rc=2pass \r\n Default : Yes \r\n Forced : No \r\n\r\n Audio #1 \r\n ID : 2 \r\n Format : AC-3 \r\n Format/Info : Audio Coding 3 \r\n Mode extension : CM (complete main) \r\n Format settings, Endianness : Big \r\n Codec ID : A_AC3 \r\n Duration : 1h 36mn \r\n Bit rate mode : Constant \r\n Bit rate : 128 Kbps \r\n Channel(s) : 2 channels \r\n Channel positions : Front: L R \r\n Sampling rate : 48.0 KHz \r\n Frame rate : 31.250 fps (1536 spf) \r\n Compression mode : Lossy \r\n Stream size : 88.1 MiB (4%) \r\n Language : Polish \r\n Default : Yes \r\n Forced : No \r\n\r\n Audio #2 \r\n ID : 3 \r\n Format : AC-3 \r\n Format/Info : Audio Coding 3 \r\n Mode extension : CM (complete main) \r\n Format settings, Endianness : Big \r\n Codec ID : A_AC3 \r\n Duration : 1h 36mn \r\n Bit rate mode : Constant \r\n Bit rate : 128 Kbps \r\n Channel(s) : 2 channels \r\n Channel positions : Front: L R \r\n Sampling rate : 48.0 KHz \r\n Compression mode : Lossy \r\n Stream size : 88.1 MiB (4%) \r\n Title : AC3 2.0 ENG \r\n Language : English \r\n Default : No \r\n Forced : No \r\n\r\n Text #1 \r\n ID : 4 \r\n Format : UTF-8 \r\n Codec ID : S_TEXT/UTF8 \r\n Codec ID/Info : UTF-8 Plain Text \r\n Title : napisy PL OCR z Bluray Leon345 \r\n Language : Polish \r\n Default : No \r\n Forced : No \r\n\r\n Text #2 \r\n ID : 5 \r\n Format : UTF-8 \r\n Codec ID : S_TEXT/UTF8 \r\n Codec ID/Info : UTF-8 Plain Text \r\n Title : napisy ENG \r\n Language : English \r\n Default : No \r\n Forced : No \r\n\r\n Text #3 \r\n ID : 6 \r\n Format : PGS \r\n Muxing mode : zlib \r\n Codec ID : S_HDMV/PGS \r\n Codec ID/Info : Picture based subtitle format used on BDs/HD-DVDs \r\n Title : Bluray orginal PL \r\n Language : Polish \r\n Default : No \r\n Forced : No \r\n\r\n Text #4 \r\n ID : 7 \r\n Format : PGS \r\n Muxing mode : zlib \r\n Codec ID : S_HDMV/PGS \r\n Codec ID/Info : Picture based subtitle format used on BDs/HD-DVDs \r\n Title : Bluray orginal ENG \r\n Language : English \r\n Default : No \r\n Forced : No \r\n\r\n A/V- BD CEE","torrent":{"xt":"urn:btih:6f33d75d03431daba0052128b9b40e537cf07811","amp;dn":"Honey+3%2A2016%2A%5B720p.AC3.BDRip.x264-LEON+345%5D","amp;tr":["udp%3A%2F%2Ftracker.leechers-paradise.org%3A6969","udp%3A%2F%2Fzer0day.ch%3A1337","udp%3A%2F%2Fopen.demonii.com%3A1337","udp%3A%2F%2Ftracker.coppersurfer.tk%3A6969","udp%3A%2F%2Fexodus.desync.com%3A6969"],"infoHash":"6f33d75d03431daba0052128b9b40e537cf07811","infoHashBuffer":{"type":"Buffer","data":[111,51,215,93,3,67,29,171,160,5,33,40,185,180,14,83,124,240,120,17]},"announce":[],"urlList":[]}}